<svg width="263" height="250" viewBox="0 0 263 250" fill="none" xmlns="http://www.w3.org/2000/svg">
<path d="M52.1328 250C51.9564 250 51.8153 250 51.639 249.965C50.1927 249.718 49.0992 248.483 49.0992 247.002C48.6053 186.365 81.7281 145.869 90.6526 136.063C53.6143 100.965 3.48918 99.3776 2.96006 99.3424C1.47853 99.3071 0.243906 98.2136 0.0322586 96.7673C-0.179389 95.3211 0.667218 93.9101 2.0782 93.4515C59.5757 74.2621 108.325 93.2398 120.424 98.6721C142.33 52.6741 128.396 4.41852 128.255 3.92467C127.832 2.51369 128.502 0.996879 129.807 0.326663C131.113 -0.343554 132.735 0.0444685 133.617 1.2438C169.632 49.9932 166.669 102.235 165.188 115.392C215.701 122.024 257.29 93.8395 257.713 93.5573C258.912 92.7107 260.57 92.8871 261.593 93.9453C262.616 95.0036 262.757 96.6262 261.911 97.8255C226.636 147.175 176.017 160.473 163.071 163.154C172.384 213.244 212.032 244.074 212.42 244.391C213.584 245.273 213.937 246.896 213.267 248.201C212.597 249.506 211.08 250.141 209.669 249.683C151.854 231.41 123.564 187.388 117.003 175.888C72.2393 200.228 55.1664 247.46 54.99 247.954C54.5667 249.189 53.4027 250 52.1328 250Z" fill="#002855"/>
</svg>
